<svg width="30" height="30" fill="none" xmlns="http://www.w3.org/2000/svg"><g clip-path="url(#clip0_77_3182)"><circle cx="15" cy="15" r="15" fill="#665CAC"/><g clip-path="url(#clip1_77_3182)"><path d="M21.922 7.753c-.44-.409-2.22-1.723-6.188-1.74 0 0-4.68-.284-6.961 1.839-1.268 1.287-1.713 3.171-1.764 5.51-.05 2.337-.107 6.719 4.055 7.91h.003l-.003 1.814s-.028.735.448.883c.575.182.915-.377 1.466-.979.302-.33.717-.815 1.033-1.184a15.91 15.91 0 005.394-.418l-.11.024c.575-.19 3.828-.612 4.354-4.993.55-4.523-.261-7.375-1.727-8.666zm.482 8.336c-.449 3.656-3.084 3.889-3.57 4.046a14.32 14.32 0 01-3.524.43c-.36 0-.716-.014-1.068-.039l.047.003s-1.802 2.204-2.363 2.777c-.183.186-.385.171-.381-.2 0-.242.014-3.014.014-3.014-3.524-.991-3.32-4.723-3.278-6.672.041-1.95.402-3.551 1.476-4.627 1.93-1.775 5.905-1.512 5.905-1.512 3.358.014 4.965 1.041 5.34 1.385 1.236 1.077 1.867 3.651 1.402 7.423zm-4.812-2.841v.01a.23.23 0 01-.066.156.224.224 0 01-.383-.144 1.105 1.105 0 00-.295-.862 1.071 1.071 0 00-.837-.33h.003a.224.224 0 01-.15-.075.23.23 0 01.008-.314.223.223 0 01.153-.066h.013l.05-.001a1.487 1.487 0 011.1.485 1.533 1.533 0 01.403 1.146v-.005zm.703.398c.034-1.49-.884-2.658-2.627-2.788a.222.222 0 01-.205-.154.229.229 0 01.148-.293.222.222 0 01.09-.008h-.002.013a3.004 3.004 0 012.208.967 3.12 3.12 0 01.821 2.294l.001-.008a.23.23 0 01-.072.152.223.223 0 01-.376-.158v-.006.002zm1.626.472v.002a.23.23 0 01-.07.153.223.223 0 01-.308.001.23.23 0 01-.071-.152c-.018-2.867-1.902-4.427-4.185-4.444a.221.221 0 01-.207-.14.23.23 0 01.121-.297.221.221 0 01.086-.017c2.557.018 4.611 1.808 4.632 4.893l.002.001zm-.388 3.449v.006c-.374.668-1.074 1.407-1.795 1.171l-.007-.01a13.277 13.277 0 01-3.57-2.01l.03.023a9.197 9.197 0 01-1.456-1.473l-.013-.018a11.331 11.331 0 01-1.037-1.58l-.03-.059a10.313 10.313 0 01-.881-1.885l-.022-.073c-.232-.732.491-1.442 1.153-1.821h.007a.622.622 0 01.828.136v.001s.43.52.614.777c.173.24.406.622.526.836a.74.74 0 01-.127.935h-.001l-.416.338a.618.618 0 00-.183.494v-.002a4.438 4.438 0 001.081 1.844 4.35 4.35 0 001.81 1.112l.03.008a.6.6 0 00.485-.185l.333-.422a.719.719 0 01.924-.128l-.003-.002c.601.348 1.12.73 1.595 1.162l-.009-.007a.627.627 0 01.13.832l.002-.002.002.002z" fill="#fff"/></g></g><defs><clipPath id="clip0_77_3182"><path fill="#fff" d="M0 0h30v30H0z"/></clipPath><clipPath id="clip1_77_3182"><path fill="#fff" transform="translate(7 6)" d="M0 0h17v18H0z"/></clipPath></defs></svg>