<svg width="30" height="30" fill="none" xmlns="http://www.w3.org/2000/svg"><g clip-path="url(#clip0_77_3189)"><circle cx="13.5" cy="16.5" r="12.5" fill="#fff"/><path d="M13.53.77c-.093.011-.427.052-.732.087-2.549.288-5.091 1.354-7.265 3.036-.645.498-1.916 1.77-2.414 2.414C1.489 8.404.51 10.7.1 13.373c-.135.879-.135 3.14 0 4.02.352 2.273 1.113 4.271 2.32 6.076 2.409 3.61 5.995 5.83 10.407 6.457.79.111 2.947.094 3.808-.03a14.895 14.895 0 006.065-2.314c3.615-2.42 5.836-6.006 6.457-10.412.1-.686.1-2.889 0-3.574-.534-3.791-2.291-7.031-5.08-9.387A14.8 14.8 0 0016.666.881C16.033.787 13.929.71 13.53.77zm2.257 5.296c4.078.422 7.248 3.258 8.12 7.266.089.398.112.75.112 1.758 0 1.107-.017 1.336-.135 1.87-.41 1.816-1.19 3.24-2.496 4.552-1.324 1.318-2.86 2.15-4.746 2.555-.504.11-.78.128-1.822.128-1.055 0-1.313-.017-1.828-.128a11.776 11.776 0 01-2.21-.733l-.462-.217-2.537.803c-1.4.44-2.555.785-2.573.768-.017-.012.346-1.102.803-2.409l.826-2.384-.357-.75c-.674-1.412-.92-2.479-.914-3.996 0-1.202.094-1.805.433-2.819a9.117 9.117 0 014.776-5.39 9.449 9.449 0 015.01-.874z" fill="#29A71A"/><path d="M13.56 7.496c-2.566.463-4.617 1.957-5.754 4.184-1.2 2.361-1.066 5.22.358 7.435.164.258.299.498.299.534 0 .035-.2.673-.446 1.418-.24.75-.433 1.37-.421 1.382.011.012.685-.187 1.488-.433l1.47-.457.58.31a9 9 0 002.338.815c.75.146 2.098.134 2.877-.024 3.123-.627 5.561-3.012 6.17-6.035.17-.832.206-1.482.123-2.18-.392-3.416-2.789-6.088-6.152-6.867-.656-.146-2.29-.193-2.93-.082zm-1.353 3.639c.03.035.27.556.533 1.172.37.867.463 1.136.422 1.23-.03.065-.24.334-.475.604-.228.263-.416.504-.416.527 0 .094.416.738.721 1.107.164.211.492.54.715.733.662.562 1.957 1.271 2.185 1.19.053-.018.282-.27.498-.563.622-.809.498-.791 1.723-.229 1.3.592 1.307.598 1.307.838-.006.762-.522 1.559-1.23 1.881-.903.41-1.975.246-3.546-.527-.902-.451-1.64-.99-2.46-1.81-.862-.856-1.407-1.571-1.788-2.345-.38-.761-.486-1.189-.457-1.869.012-.45.047-.591.2-.914.187-.392.586-.89.808-1.008.065-.035.2-.082.293-.1.223-.046.897.013.967.083z" fill="#29A71A"/></g><defs><clipPath id="clip0_77_3189"><path fill="#fff" d="M0 0h30v30H0z"/></clipPath></defs></svg>